<?xml version="1.0" encoding="UTF-8" standalone="no" ?>
<!DOCTYPE svg PUBLIC "-//W3C//DTD SVG 1.1//EN" "http://www.w3.org/Graphics/SVG/1.1/DTD/svg11.dtd">
<svg xmlns="http://www.w3.org/2000/svg" xmlns:xlink="http://www.w3.org/1999/xlink" version="1.1" width="500" height="500" viewBox="0 0 500 500" xml:space="preserve">
<desc>Created with Fabric.js 3.6.3</desc>
<defs>
</defs>
<g transform="matrix(0.5 0 0 0.5 326.5576516752416 226.17109534038713)" style=""  ><path fill="#ffffff" opacity="1" d="M-79.99 55.29L-79.99 53.53L-79.11 53.53Q-77.70 53.53-76.65 52.56Q-75.59 51.59-74.80 50.18Q-74.01 48.78-73.57 47.19Q-73.13 45.61-73.13 44.20L-73.13 44.20L-73.13-49.96Q-73.13-51.19-73.57-52.78Q-74.01-54.36-74.80-55.77Q-75.59-57.18-76.65-58.14Q-77.70-59.11-79.11-59.11L-79.11-59.11L-79.99-59.11L-79.99-60.87L-12.23-60.87L-12.23-44.50L-13.99-44.50Q-14.34-48.55-17.16-51.63Q-19.98-54.71-25.96-54.71L-25.96-54.71L-61.34-54.71L-61.34-10.18L-32.12-10.18Q-28.07-10.18-25.34-12.65Q-22.62-15.11-22.62-18.46L-22.62-18.46L-20.86-18.46L-20.86 3.54L-22.62 3.54Q-22.62 0.38-25.26-1.91Q-27.90-4.20-32.12-4.20L-32.12-4.20L-61.34-4.20L-61.34 49.13L-22.79 49.13Q-19.45 49.13-16.98 47.54Q-14.52 45.96-12.85 43.76Q-11.18 41.56-10.38 39.01Q-9.59 36.46-9.59 34.70L-9.59 34.70L-7.83 34.70L-7.83 55.29L-79.99 55.29Z"/><path fill="#ffffff" opacity="1" d="M16.10-59.11L16.10-60.87L41.10-60.87Q60.63-60.87 70.75-53.39Q80.87-45.91 80.87-32.18L80.87-32.18Q80.87-24.79 77.35-18.98Q73.83-13.18 68.11-9.22Q62.39-5.26 55.26-3.14Q48.14-1.03 41.10-1.03L41.10-1.03L34.41-1.03L34.41 43.85Q34.41 45.26 34.76 46.93Q35.11 48.60 35.90 50.01Q36.70 51.42 37.66 52.47Q38.63 53.53 40.04 53.53L40.04 53.53L40.92 53.53L40.92 55.29L16.10 55.29L16.10 53.53L16.98 53.53Q18.22 53.53 19.27 52.47Q20.33 51.42 21.03 50.01Q21.74 48.60 22.09 46.93Q22.44 45.26 22.44 43.85L22.44 43.85L22.44-49.96Q22.44-52.42 21.03-55.59Q19.62-58.76 16.98-59.11L16.98-59.11L16.10-59.11ZM36.87-54.71L34.41-54.71L34.41-7.19L39.69-7.19Q46.73-7.19 52.27-9.13Q57.82-11.06 61.51-14.23Q65.21-17.40 67.14-21.45Q69.08-25.50 69.08-29.72L69.08-29.72Q69.08-34.82 67.41-39.31Q65.74-43.80 61.95-47.23Q58.17-50.66 52.01-52.69Q45.85-54.71 36.87-54.71L36.87-54.71Z"/></g><g transform="matrix(0.5 0 0 0.5 249.46621621615432 329.9995058073293)" style=""  ><path fill="#ffffff" opacity="1" d="M-287.06 17.59L-287.06 17.03L-286.78 17.03Q-286.33 17.03-285.99 16.72Q-285.66 16.42-285.40 15.97Q-285.15 15.52-285.01 15.02Q-284.87 14.51-284.87 14.06L-284.87 14.06L-284.87-15.90Q-284.87-16.29-285.01-16.79Q-285.15-17.30-285.40-17.74Q-285.66-18.19-285.99-18.50Q-286.33-18.81-286.78-18.81L-286.78-18.81L-287.06-18.81L-287.06-19.37L-265.50-19.37L-265.50-14.16L-266.06-14.16Q-266.17-15.45-267.06-16.43Q-267.96-17.41-269.86-17.41L-269.86-17.41L-281.12-17.41L-281.12-3.24L-271.82-3.24Q-270.54-3.24-269.67-4.02Q-268.80-4.81-268.80-5.87L-268.80-5.87L-268.24-5.87L-268.24 1.13L-268.80 1.13Q-268.80 0.12-269.64-0.61Q-270.48-1.34-271.82-1.34L-271.82-1.34L-281.12-1.34L-281.12 15.63L-268.86 15.63Q-267.79 15.63-267.01 15.13Q-266.22 14.62-265.69 13.92Q-265.16 13.22-264.91 12.41Q-264.66 11.60-264.66 11.04L-264.66 11.04L-264.10 11.04L-264.10 17.59L-287.06 17.59Z"/><path fill="#ffffff" opacity="1" d="M-232.62 17.03L-232.62 17.03L-232.34 17.03L-232.34 17.59L-238.56 17.59L-238.56 17.03L-238.28 17.03Q-237.89 17.03-237.52 16.70Q-237.16 16.36-236.94 15.91Q-236.71 15.46-236.57 14.93Q-236.43 14.40-236.43 13.95L-236.43 13.95L-236.43-15.90Q-236.43-16.29-236.52-16.79Q-236.60-17.30-236.82-17.74Q-237.05-18.19-237.44-18.50Q-237.83-18.81-238.39-18.81L-238.39-18.81L-238.67-18.81L-238.67-19.37L-233.02-19.37L-212.69 12.66L-212.69-15.90Q-212.69-16.29-212.83-16.79Q-212.97-17.30-213.22-17.74Q-213.47-18.19-213.81-18.50Q-214.14-18.81-214.59-18.81L-214.59-18.81L-214.87-18.81L-214.87-19.37L-208.60-19.37L-208.60-18.81L-208.88-18.81Q-209.33-18.81-209.66-18.50Q-210.00-18.19-210.25-17.74Q-210.50-17.30-210.62-16.79Q-210.73-16.29-210.73-15.90L-210.73-15.90L-210.73 17.59L-214.20 17.59L-234.47-14.55L-234.47 13.95Q-234.47 14.40-234.36 14.93Q-234.25 15.46-234.00 15.91Q-233.74 16.36-233.41 16.70Q-233.07 17.03-232.62 17.03Z"/><path fill="#ffffff" opacity="1" d="M-159.26 7.68L-159.26 7.68Q-159.26 10.48-160.38 12.47Q-161.50 14.46-163.27 15.69Q-165.03 16.92-167.24 17.48Q-169.46 18.04-171.64 18.04L-171.64 18.04Q-173.88 18.04-175.50 17.59Q-177.13 17.14-178.47 16.75L-178.47 16.75Q-179.37 16.47-180.10 16.28Q-180.82 16.08-181.55 16.08L-181.55 16.08L-181.55 9.70L-180.99 9.70Q-180.99 11.82-179.90 13.08Q-178.81 14.34-177.35 15.02Q-175.90 15.69-174.44 15.88Q-172.98 16.08-172.31 16.08L-172.31 16.08Q-169.90 16.08-168.17 15.38Q-166.43 14.68-165.31 13.53Q-164.19 12.38-163.66 10.98Q-163.13 9.58-163.13 8.13L-163.13 8.13Q-163.13 6.28-163.91 5.02Q-164.70 3.76-165.96 2.81Q-167.22 1.86-168.84 1.18Q-170.46 0.51-172.14-0.16L-172.14-0.16Q-174.05-0.89-175.90-1.67Q-177.74-2.46-179.20-3.60Q-180.66-4.75-181.55-6.35Q-182.45-7.94-182.45-10.30L-182.45-10.30Q-182.45-12.76-181.50-14.58Q-180.54-16.40-178.95-17.58Q-177.35-18.75-175.31-19.34Q-173.26-19.93-171.14-19.93L-171.14-19.93Q-169.68-19.93-168.39-19.73Q-167.10-19.54-165.93-19.26L-165.93-19.26Q-164.98-19.03-164.08-18.89Q-163.18-18.75-162.34-18.75L-162.34-18.75L-162.34-12.98L-162.90-12.98Q-163.02-15.90-165.20-16.93Q-167.38-17.97-171.25-17.97L-171.25-17.97Q-173.49-17.97-174.92-17.21Q-176.34-16.46-177.18-15.36Q-178.02-14.27-178.33-13.01Q-178.64-11.75-178.64-10.80L-178.64-10.80Q-178.64-9.23-177.94-8.11Q-177.24-6.99-176.06-6.15Q-174.89-5.31-173.35-4.64Q-171.81-3.97-170.13-3.35L-170.13-3.35Q-168.22-2.62-166.26-1.78Q-164.30-0.94-162.76 0.29Q-161.22 1.52-160.24 3.31Q-159.26 5.10-159.26 7.68Z"/><path fill="#ffffff" opacity="1" d="M-114.24-19.93L-114.24-19.93Q-109.87-19.93-106.40-18.39Q-102.93-16.85-100.49-14.24Q-98.06-11.64-96.74-8.20Q-95.42-4.75-95.42-1.00L-95.42-1.00Q-95.42 3.20-96.96 6.73Q-98.50 10.26-101.19 12.78Q-103.88 15.30-107.44 16.72Q-110.99 18.15-115.02 18.15L-115.02 18.15Q-119.34 18.15-122.78 16.58Q-126.22 15.02-128.60 12.44Q-130.98 9.86-132.27 6.50Q-133.56 3.14-133.56-0.50L-133.56-0.50Q-133.56-4.08-132.27-7.58Q-130.98-11.08-128.49-13.82Q-126.00-16.57-122.42-18.25Q-118.83-19.93-114.24-19.93ZM-114.30 16.19L-114.30 16.19Q-110.54 16.02-107.72 14.48Q-104.89 12.94-102.98 10.56Q-101.08 8.18-100.16 5.33Q-99.23 2.47-99.23-0.33L-99.23-0.33Q-99.23-3.41-100.35-6.54Q-101.47-9.68-103.54-12.23Q-105.62-14.78-108.50-16.37Q-111.38-17.97-114.97-17.97L-114.97-17.97Q-118.44-17.97-121.18-16.43Q-123.93-14.89-125.86-12.48Q-127.79-10.07-128.80-7.10Q-129.81-4.14-129.81-1.28L-129.81-1.28Q-129.81 1.80-128.63 4.91Q-127.46 8.02-125.38 10.54Q-123.31 13.06-120.48 14.62Q-117.66 16.19-114.30 16.19Z"/><path fill="#ffffff" opacity="1" d=""/><path fill="#ffffff" opacity="1" d="M-33.21-18.81L-33.21-19.37L-25.26-19.37Q-19.04-19.37-15.82-16.99Q-12.60-14.61-12.60-10.24L-12.60-10.24Q-12.60-7.89-13.72-6.04Q-14.84-4.19-16.66-2.93Q-18.48-1.67-20.75-1.00Q-23.02-0.33-25.26-0.33L-25.26-0.33L-27.38-0.33L-27.38 13.95Q-27.38 14.40-27.27 14.93Q-27.16 15.46-26.91 15.91Q-26.66 16.36-26.35 16.70Q-26.04 17.03-25.59 17.03L-25.59 17.03L-25.31 17.03L-25.31 17.59L-33.21 17.59L-33.21 17.03L-32.93 17.03Q-32.54 17.03-32.20 16.70Q-31.86 16.36-31.64 15.91Q-31.42 15.46-31.30 14.93Q-31.19 14.40-31.19 13.95L-31.19 13.95L-31.19-15.90Q-31.19-16.68-31.64-17.69Q-32.09-18.70-32.93-18.81L-32.93-18.81L-33.21-18.81ZM-26.60-17.41L-27.38-17.41L-27.38-2.29L-25.70-2.29Q-23.46-2.29-21.70-2.90Q-19.94-3.52-18.76-4.53Q-17.58-5.54-16.97-6.82Q-16.35-8.11-16.35-9.46L-16.35-9.46Q-16.35-11.08-16.88-12.51Q-17.42-13.94-18.62-15.03Q-19.82-16.12-21.78-16.76Q-23.74-17.41-26.60-17.41L-26.60-17.41Z"/><path fill="#ffffff" opacity="1" d="M21.17 17.03L21.17 17.03L21.45 17.03L21.45 17.59L13.55 17.59L13.55 17.03L13.83 17.03Q14.22 17.03 14.56 16.70Q14.90 16.36 15.15 15.91Q15.40 15.46 15.51 14.93Q15.62 14.40 15.62 13.95L15.62 13.95L15.62-15.90Q15.62-16.29 15.51-16.79Q15.40-17.30 15.15-17.74Q14.90-18.19 14.56-18.50Q14.22-18.81 13.83-18.81L13.83-18.81L13.55-18.81L13.55-19.37L23.30-19.37Q28.90-19.37 31.95-17.18Q35.00-15.00 35.00-10.74L35.00-10.74Q35.00-8.62 34.30-7.02Q33.60-5.42 32.42-4.28Q31.25-3.13 29.65-2.43Q28.06-1.73 26.26-1.39L26.26-1.39L30.30 4.77Q31.75 7.01 33.26 9.16Q34.78 11.32 36.23 13.62L36.23 13.62Q36.62 14.18 37.10 14.79Q37.58 15.41 38.11 15.91Q38.64 16.42 39.23 16.72Q39.82 17.03 40.43 17.03L40.43 17.03L40.43 17.59L38.02 17.59Q35.78 17.59 34.36 16.50Q32.93 15.41 31.98 13.95L31.98 13.95Q29.46 10.26 26.96 6.45Q24.47 2.64 22.01-1.06L22.01-1.06Q21.39-1.11 20.69-1.20Q19.99-1.28 19.38-1.39L19.38-1.39L19.38 13.95Q19.38 14.40 19.49 14.93Q19.60 15.46 19.85 15.91Q20.10 16.36 20.41 16.70Q20.72 17.03 21.17 17.03ZM20.22-17.46L19.38-17.46L19.38-3.24L19.66-3.24Q20.10-3.18 21.08-3.16Q22.06-3.13 23.52-3.13L23.52-3.13Q24.70-3.13 26.01-3.49Q27.33-3.86 28.48-4.72Q29.62-5.59 30.38-6.99Q31.14-8.39 31.14-10.52L31.14-10.52Q31.14-12.65 30.32-13.99Q29.51-15.34 28.08-16.12Q26.66-16.90 24.64-17.18Q22.62-17.46 20.22-17.46L20.22-17.46Z"/><path fill="#ffffff" opacity="1" d="M84.06-19.93L84.06-19.93Q88.42-19.93 91.90-18.39Q95.37-16.85 97.80-14.24Q100.24-11.64 101.56-8.20Q102.87-4.75 102.87-1.00L102.87-1.00Q102.87 3.20 101.33 6.73Q99.79 10.26 97.10 12.78Q94.42 15.30 90.86 16.72Q87.30 18.15 83.27 18.15L83.27 18.15Q78.96 18.15 75.52 16.58Q72.07 15.02 69.69 12.44Q67.31 9.86 66.02 6.50Q64.74 3.14 64.74-0.50L64.74-0.50Q64.74-4.08 66.02-7.58Q67.31-11.08 69.80-13.82Q72.30-16.57 75.88-18.25Q79.46-19.93 84.06-19.93ZM84.00 16.19L84.00 16.19Q87.75 16.02 90.58 14.48Q93.41 12.94 95.31 10.56Q97.22 8.18 98.14 5.33Q99.06 2.47 99.06-0.33L99.06-0.33Q99.06-3.41 97.94-6.54Q96.82-9.68 94.75-12.23Q92.68-14.78 89.80-16.37Q86.91-17.97 83.33-17.97L83.33-17.97Q79.86-17.97 77.11-16.43Q74.37-14.89 72.44-12.48Q70.50-10.07 69.50-7.10Q68.49-4.14 68.49-1.28L68.49-1.28Q68.49 1.80 69.66 4.91Q70.84 8.02 72.91 10.54Q74.98 13.06 77.81 14.62Q80.64 16.19 84.00 16.19Z"/><path fill="#ffffff" opacity="1" d="M130.87-18.81L130.87-19.37L138.94-19.37L138.94-18.81L138.66-18.81Q138.21-18.81 137.87-18.50Q137.54-18.19 137.28-17.72Q137.03-17.24 136.89-16.74Q136.75-16.23 136.75-15.84L136.75-15.84L136.75 15.35Q136.75 17.14 136.30 18.66Q135.86 20.17 135.10 21.48Q134.34 22.80 133.42 23.89Q132.50 24.98 131.49 25.88L131.49 25.88Q129.19 27.95 126.22 29.35L126.22 29.35L125.94 28.90Q127.90 27.50 129.42 25.60L129.42 25.60Q130.70 23.98 131.82 21.62Q132.94 19.27 132.94 16.19L132.94 16.19L132.94-15.84Q132.94-16.23 132.83-16.74Q132.72-17.24 132.47-17.72Q132.22-18.19 131.88-18.50Q131.54-18.81 131.15-18.81L131.15-18.81L130.87-18.81Z"/><path fill="#ffffff" opacity="1" d="M165.70 17.59L165.70 17.03L165.98 17.03Q166.43 17.03 166.77 16.72Q167.10 16.42 167.36 15.97Q167.61 15.52 167.75 15.02Q167.89 14.51 167.89 14.06L167.89 14.06L167.89-15.90Q167.89-16.29 167.75-16.79Q167.61-17.30 167.36-17.74Q167.10-18.19 166.77-18.50Q166.43-18.81 165.98-18.81L165.98-18.81L165.70-18.81L165.70-19.37L187.26-19.37L187.26-14.16L186.70-14.16Q186.59-15.45 185.70-16.43Q184.80-17.41 182.90-17.41L182.90-17.41L171.64-17.41L171.64-3.24L180.94-3.24Q182.22-3.24 183.09-4.02Q183.96-4.81 183.96-5.87L183.96-5.87L184.52-5.87L184.52 1.13L183.96 1.13Q183.96 0.12 183.12-0.61Q182.28-1.34 180.94-1.34L180.94-1.34L171.64-1.34L171.64 15.63L183.90 15.63Q184.97 15.63 185.75 15.13Q186.54 14.62 187.07 13.92Q187.60 13.22 187.85 12.41Q188.10 11.60 188.10 11.04L188.10 11.04L188.66 11.04L188.66 17.59L165.70 17.59Z"/><path fill="#ffffff" opacity="1" d="M232.12-17.91L232.12-17.91Q227.98-17.91 224.92-16.43Q221.87-14.94 219.86-12.56Q217.84-10.18 216.86-7.22Q215.88-4.25 215.88-1.34L215.88-1.34Q215.88 1.97 217.17 5.13Q218.46 8.30 220.72 10.73Q222.99 13.17 226.02 14.65Q229.04 16.14 232.57 16.14L232.57 16.14Q233.58 16.14 234.95 15.91Q236.32 15.69 237.66 15.04Q239.01 14.40 240.16 13.22Q241.30 12.05 241.92 10.14L241.92 10.14L242.48 10.14L242.48 16.36Q241.64 16.36 240.72 16.58Q239.79 16.81 238.67 17.09L238.67 17.09Q237.22 17.48 235.45 17.82Q233.69 18.15 231.73 18.15L231.73 18.15Q226.86 18.15 223.16 16.47Q219.46 14.79 217.00 12.10Q214.54 9.42 213.30 6.03Q212.07 2.64 212.07-0.83L212.07-0.83Q212.07-4.30 213.30-7.72Q214.54-11.14 217.06-13.85Q219.58-16.57 223.38-18.25Q227.19-19.93 232.34-19.93L232.34-19.93Q234.19-19.93 235.68-19.59Q237.16-19.26 238.34-18.92L238.34-18.92Q239.18-18.64 239.88-18.50Q240.58-18.36 241.25-18.36L241.25-18.36L241.25-12.14L240.69-12.14Q240.35-13.88 239.46-15.03Q238.56-16.18 237.36-16.79Q236.15-17.41 234.78-17.66Q233.41-17.91 232.12-17.91Z"/><path fill="#ffffff" opacity="1" d="M280.06 17.03L280.06 17.03L280.34 17.03L280.34 17.59L272.38 17.59L272.38 17.03L272.66 17.03Q273.11 17.03 273.45 16.70Q273.78 16.36 274.04 15.91Q274.29 15.46 274.40 14.93Q274.51 14.40 274.51 13.95L274.51 13.95L274.51-17.30L268.02-17.30Q267.12-17.30 266.45-16.90Q265.78-16.51 265.33-15.92Q264.88-15.34 264.66-14.64Q264.43-13.94 264.43-13.26L264.43-13.26L263.87-13.26L263.87-19.37L289.02-19.37L289.02-13.26L288.46-13.26Q288.46-13.94 288.23-14.64Q288.01-15.34 287.56-15.92Q287.11-16.51 286.44-16.90Q285.77-17.30 284.87-17.30L284.87-17.30L278.26-17.30L278.26 13.95Q278.26 14.40 278.38 14.93Q278.49 15.46 278.74 15.91Q278.99 16.36 279.30 16.70Q279.61 17.03 280.06 17.03Z"/></g><g transform="matrix(0.23743492057263094 -5.815e-17 5.815e-17 0.23743492057263094 156.66423994425452 222.94938283503393)"  >
<g style=""   >
		<g transform="matrix(1 0 0 1 183.55 81.25)" clip-path="url(#CLIPPATH_51264)"  >
<clipPath id="CLIPPATH_51264" >
	<rect transform="matrix(1 0 0 1 -364.9000000000001 -165.14999999999998)" x="-234" y="-230.05" rx="0" ry="0" width="468" height="460.1" />
</clipPath>
<path style="stroke: none; stroke-width: 1; stroke-dasharray: none; stroke-linecap: butt; stroke-dashoffset: 0; stroke-linejoin: miter; stroke-miterlimit: 4; fill: rgb(118,24,206); fill-rule: nonzero; opacity: 1;"  transform=" translate(-453.05, -350.75)" d="M 447.1 360.9 c 0.2 -0.5 1.8 -4.3 3.4 -8.4 c 2.1 -3.5 4.4 -7.3 7.5 -11.9 c 0.3 0.1 0.6 0.2 1 0.4 C 454.8 349.4 449.3 359.9 447.1 360.9" stroke-linecap="round" />
</g>
		<g transform="matrix(1 0 0 1 145.37643109316946 49.19999999999993)" clip-path="url(#CLIPPATH_51265)"  >
<clipPath id="CLIPPATH_51265" >
	<rect transform="matrix(1 0 0 1 -288.55286218633887 -101.04999999999984)" x="-234" y="-230.05" rx="0" ry="0" width="468" height="460.1" />
</clipPath>
<path style="stroke: none; stroke-width: 1; stroke-dasharray: none; stroke-linecap: butt; stroke-dashoffset: 0; stroke-linejoin: miter; stroke-miterlimit: 4; fill: rgb(118,24,206); fill-rule: nonzero; opacity: 1;"  transform=" translate(-414.87643109316946, -318.69999999999993)" d="M 501.6 233.6 c 3.7 22.2 4.2 44.5 1.2 66.9 c -5.7 43.3 -23.6 81.4 -50.1 115.7 c -10 12.9 -21.7 24.2 -34.7 34.1 c -20.9 15.9 -43.9 27 -69.7 31.9 c -7.6 1.4 -15.5 2 -23.3 2.4 c 6.2 -4.3 13.6 -4.7 20.4 -6.7 c 14.5 -4.1 28.9 -9 41.9 -16.6 c 18.7 -10.9 36.4 -23.3 51.2 -39.5 c 28.5 -31.4 47.9 -67.3 56.3 -109 c 6.3 -31.1 5.6 -62 -1.8 -92.8 c -3.3 -14 -6.1 -28.1 -11.4 -41.5 c -3.4 -8.4 -7.1 -16.5 -11.5 -24.3 l 3.1 -1.4 C 487.5 178 496.8 204.9 501.6 233.6" stroke-linecap="round" />
</g>
		<g transform="matrix(1 0 0 1 188 -45.349999999999994)" clip-path="url(#CLIPPATH_51266)"  >
<clipPath id="CLIPPATH_51266" >
	<rect transform="matrix(1 0 0 1 -373.79999999999995 88.05000000000004)" x="-234" y="-230.05" rx="0" ry="0" width="468" height="460.1" />
</clipPath>
<path style="stroke: none; stroke-width: 1; stroke-dasharray: none; stroke-linecap: butt; stroke-dashoffset: 0; stroke-linejoin: miter; stroke-miterlimit: 4; fill: rgb(118,24,206); fill-rule: nonzero; opacity: 1;"  transform=" translate(-457.5, -224.15)" d="M 448.3 185.5 c 12.4 24.3 18.4 50.2 18.4 77.3 C 463.4 228.8 460.1 215.3 448.3 185.5" stroke-linecap="round" />
</g>
		<g transform="matrix(1 0 0 1 176.11075189496106 92.29999999999998)" clip-path="url(#CLIPPATH_51267)"  >
<clipPath id="CLIPPATH_51267" >
	<rect transform="matrix(1 0 0 1 -350.021503789922 -187.2499999999999)" x="-234" y="-230.05" rx="0" ry="0" width="468" height="460.1" />
</clipPath>
<path style="stroke: none; stroke-width: 1; stroke-dasharray: none; stroke-linecap: butt; stroke-dashoffset: 0; stroke-linejoin: miter; stroke-miterlimit: 4; fill: rgb(118,24,206); fill-rule: nonzero; opacity: 1;"  transform=" translate(-445.610751894961, -361.79999999999995)" d="M 458.9 340.9 h 0.1 c -0.4 1.6 -4.5 10.4 -5.4 11.8 c -5.5 9.3 -13.6 21.1 -20.6 30 c -3.4 -0.8 5.3 -10.1 7.6 -14 c 3.9 -5.9 6.5 -10.6 9.8 -16.2 c -1.6 4.1 -3.1 7.9 -3.4 8.4 C 449.3 359.9 454.8 349.4 458.9 340.9" stroke-linecap="round" />
</g>
		<g transform="matrix(1 0 0 1 180.73902922175432 13.649999999999963)" clip-path="url(#CLIPPATH_51268)"  >
<clipPath id="CLIPPATH_51268" >
	<rect transform="matrix(1 0 0 1 -359.2780584435086 -29.949999999999932)" x="-234" y="-230.05" rx="0" ry="0" width="468" height="460.1" />
</clipPath>
<path style="stroke: none; stroke-width: 1; stroke-dasharray: none; stroke-linecap: butt; stroke-dashoffset: 0; stroke-linejoin: miter; stroke-miterlimit: 4; fill: rgb(118,24,206); fill-rule: nonzero; opacity: 1;"  transform=" translate(-450.2390292217543, -283.15)" d="M 455.9 234.8 c 9.5 34.2 7.9 67.7 -6.4 100.3 c -2.6 6 -6 11.6 -9 17.4 c -0.3 0.6 -0.9 1.2 -1.9 1.5 c 0.3 -1 0.6 -2 1 -3 c 7.6 -19.5 12.2 -39.7 13.9 -60.6 c 2.2 -26.2 -0.4 -51.9 -8 -77 l 3.9 -1.1 C 451.6 219.7 453.8 227.2 455.9 234.8" stroke-linecap="round" />
</g>
		<g transform="matrix(1 0 0 1 -5.037475056200833 -3.7486011108167077)" clip-path="url(#CLIPPATH_51269)"  >
<clipPath id="CLIPPATH_51269" >
	<rect transform="matrix(1 0 0 1 12.274950112401655 4.847202221633438)" x="-234" y="-230.05" rx="0" ry="0" width="468" height="460.1" />
</clipPath>
<path style="stroke: none; stroke-width: 1; stroke-dasharray: none; stroke-linecap: butt; stroke-dashoffset: 0; stroke-linejoin: miter; stroke-miterlimit: 4; fill: rgb(118,24,206); fill-rule: nonzero; opacity: 1;"  transform=" translate(-264.46252494379917, -265.7513988891833)" d="M 488.9 231.7 c -3.2 -20.8 -7.7 -41.3 -15.9 -60.8 c -4.7 -11.1 -10.8 -21.4 -17.3 -31.5 c -1.4 -2.2 -2.5 -4.6 -3.8 -7 c 0.4 -0.3 0.7 -0.5 1.1 -0.8 c 1.8 1.8 3.7 3.4 5.3 5.3 c 4.5 5.4 8.4 11.2 11.8 17.3 l 3.1 -1.4 c -3.3 -5.8 -6.8 -11.4 -10.6 -17 c -14.8 -21.7 -32.5 -40.5 -54.1 -55.6 c -19.1 -13.3 -39.9 -23.3 -62 -30.8 c -31.1 -10.6 -62.8 -15.8 -95.8 -13.1 c -27 2.2 -52 9.5 -75.4 21 c -12.2 6.1 -24 13.3 -35.4 21.5 c -15.5 11.3 -30.2 23.6 -42.9 38.1 c -11.3 12.8 -21.7 26.4 -29.2 41.8 c -10 20.7 -15.5 42.9 -19.3 65.4 c -1.7 10.2 -3.3 20.5 -5 30.7 c -0.2 1.3 -0.9 2.5 -1.4 3.8 c -0.3 -0.1 -0.6 -0.2 -0.9 -0.3 c 0.5 -6.6 0.7 -13.2 1.5 -19.7 c 2 -18.1 6.2 -35.6 11.9 -52.9 c 7.1 -21.6 15.8 -42.3 29.8 -60.5 c 1.6 -2 2.9 -4.2 4.4 -6.3 c -1.8 2 -3.6 4 -5.3 6.1 c -13.7 17 -23.8 36 -31.6 56.3 c -12.9 34 -17.5 68.8 -14.1 104.5 c 2.6 27.4 9.3 53.8 20.6 78.9 c 5 11.1 11.1 16.3 16.3 27.3 c 5 10.6 10.7 19.7 17.7 29.1 c 6.1 8.2 12.6 13.2 18.9 21.3 c 4.6 5.8 7.2 6.9 11.9 12.5 c 0.9 1.1 4.7 5.7 6.1 6.1 c 2.5 0.6 5.3 4 7.6 5 c 4.8 2 9.4 4.6 14.1 7 c 8.6 4.4 15.1 9.2 23.7 13.5 c 1 0.5 5.3 1.5 6.8 1.9 c -0.8 -1.6 -2.2 -0.6 -3.1 -2.5 c 4.1 1.2 7.2 2 11.5 3.4 c 5.6 1.8 16.1 4.9 21.8 6.5 c 1.8 0.5 0.8 -0.9 2.7 -0.9 c 0.1 -0.2 3.1 0.5 3.2 0.3 c -1.1 -0.9 1.9 -0.9 0.6 -2 c 0.7 -0.4 1.1 -0.6 1.6 -0.9 c 5.6 -4 11.4 -4.9 16.9 -9.1 c 1.9 -1.4 3.6 -3.5 2.9 -6.4 c -1 -4 -1.7 -8.2 -3.2 -12.1 c -1.3 -3.2 -3 -6.7 -5.6 -8.8 c -5.8 -4.6 -6.4 -10.4 -12.5 -14.6 c -4.3 -2.9 -17.7 -7.8 -21.7 -11.1 c -5.4 -4.7 -16.5 -4.8 -21.6 -9.8 c -6.2 -6.1 -15.8 -11.8 -21.3 -18.5 c -40.3 -35.2 -49.8 -71.3 -55.7 -98.7 c -0.9 -3.8 -0.6 -16.7 -1.5 -21 c -0.7 1.1 -1.1 1.7 -1.8 2.7 c -0.3 -1.5 -0.5 -2.4 -0.6 -3.4 c -2.4 -27.5 0.5 -54.4 10 -80.4 c 3.3 -9.1 7.2 -17.7 11.8 -25.8 c 16.8 -30.3 41.7 -53.6 72.8 -71.5 c 11.2 -6.5 22.9 -11.3 34.9 -14.7 c 17.7 -5 36.1 -6.7 55.1 -5.9 c 25.2 1.1 49 8.1 71.8 18.4 c 16.7 7.5 32.5 16.7 45.6 29.6 c 7.2 7.1 13.5 15.2 19.7 23.2 c 12.8 16.6 22.2 35.1 28.7 55 c 0.4 1.3 0.8 2.6 1.2 3.9 l 3.9 -1.1 c -1 -3.4 -1.9 -6.8 -2.9 -10.1 c -0.4 -1.4 -0.3 -3 -0.5 -4.9 c 1.7 0.6 2.6 1 3.8 1.4 c 1.5 -4.8 -1.2 -8.8 -1.5 -13.1 c 12.4 24.3 18.4 50.2 18.4 77.3 c 0 16.7 -1.3 33.4 -3 50 c -1 9.3 -7 19.4 -9.1 28.5 c -0.1 0.7 -2.2 6.1 -4.2 11 c 2.1 -3.5 4.4 -7.3 7.5 -11.9 c 0.3 0.1 0.6 0.2 1 0.4 c 2.5 -5.2 4.4 -9.6 4.7 -10.7 c 3.2 -11.2 5.7 -16.5 6.5 -28.2 c 0.6 -8.7 1.3 -17.3 1.4 -25.9 c 0.1 -12.1 -0.6 -19.2 -1.4 -31.3 c -0.6 -8 -3.4 -21 -5.1 -28.8 c -5.2 -22.4 -15.8 -42.4 -27.8 -61.8 c -2 -3.2 -3.8 -6.5 -5.9 -10.2 c 12.7 2.1 43.2 58.2 44.2 80 c -2.6 -6.3 -5.1 -12.4 -7.6 -18.6 c -0.4 0.1 -0.7 0.3 -1.1 0.4 c 10.1 31.7 11.3 64.3 10.4 97.2 c 0.6 -4.6 1.3 -9.1 1.9 -13.7 c 0.4 3.8 0.6 7.5 0 11.2 c -1.2 7.2 -2.1 14.6 -4.8 21.2 c -1.7 4.1 -3 8.3 -4.7 12.4 c -4.2 10.2 -8.1 20.6 -12.9 30.4 c -4.5 9.1 -9.6 18 -15.3 26.5 c -4.5 6.8 -10.7 12.5 -15.3 19.2 c -5 7.2 -11.2 12.8 -18 17.9 c -7.2 5.4 -14.4 10.9 -20.8 17.2 c -4.5 4.5 -9.5 8 -15.3 11.7 c 0.9 0.8 1.7 2.1 2.3 2 c 3 -0.6 6.2 0.5 9 -1.5 c 4.5 -3.2 9.9 -5.3 13.8 -9.1 c 4.3 -4.1 8.6 -8.1 13.7 -10.9 c 10.8 -5.8 19.2 -14.3 26.4 -23.9 c 8.7 -11.6 16.5 -23.9 24.9 -35.8 c 16.1 -22.7 24.5 -48.1 28.1 -75.4 C 493.4 278.9 492.5 255.3 488.9 231.7 z M 434 162.3 c 2.1 3.5 6.1 6 6.1 10.8 c -0.3 0.2 -0.6 0.3 -0.9 0.5 c -2 -3.6 -4 -7.2 -6 -10.8 C 433.5 162.7 433.8 162.5 434 162.3 z M 427.4 153 c -1.9 -2 -3.9 -4.1 -5.8 -6.1 C 400 123.5 374.8 105 345.1 93 c -7.5 -3 -15.6 -4.4 -23.4 -6.8 c -3.9 -1.2 -7.6 -3 -11.4 -4.5 c 0.2 -0.4 0.4 -0.9 0.5 -1.3 c 8 2.2 16.1 4.3 24 6.7 c 15.1 4.4 29.9 9.9 43.6 17.7 c 14.8 8.5 27.5 19.6 38.5 32.7 c 3.6 4.2 6.7 8.8 10.1 13.3 C 427.4 151.2 427.7 151.9 427.4 153 z" stroke-linecap="round" />
</g>
		<g transform="matrix(1 0 0 1 90.7326336743181 195.2)" clip-path="url(#CLIPPATH_51270)"  >
<clipPath id="CLIPPATH_51270" >
	<rect transform="matrix(1 0 0 1 -179.2652673486362 -393.0499999999999)" x="-234" y="-230.05" rx="0" ry="0" width="468" height="460.1" />
</clipPath>
<path style="stroke: none; stroke-width: 1; stroke-dasharray: none; stroke-linecap: butt; stroke-dashoffset: 0; stroke-linejoin: miter; stroke-miterlimit: 4; fill: rgb(118,24,206); fill-rule: nonzero; opacity: 1;"  transform=" translate(-360.2326336743181, -464.7)" d="M 370.8 457.4 c 0.7 1.8 1.4 3.2 -1 3.9 c -0.3 0.1 -0.7 0.4 -0.6 0.6 c 0.3 4 -3.1 4.1 -5.5 5.1 c -4.6 1.9 -9.3 3.4 -14 5 c -0.2 -0.4 -0.4 -0.9 -0.7 -1.3 C 356.2 466.2 363.4 461.9 370.8 457.4" stroke-linecap="round" />
</g>
		<g transform="matrix(1 0 0 1 10.100000000000037 -181.85811425642294)" clip-path="url(#CLIPPATH_51271)"  >
<clipPath id="CLIPPATH_51271" >
	<rect transform="matrix(1 0 0 1 -18.000000000000057 361.0662285128459)" x="-234" y="-230.05" rx="0" ry="0" width="468" height="460.1" />
</clipPath>
<path style="stroke: none; stroke-width: 1; stroke-dasharray: none; stroke-linecap: butt; stroke-dashoffset: 0; stroke-linejoin: miter; stroke-miterlimit: 4; fill: rgb(118,24,206); fill-rule: nonzero; opacity: 1;"  transform=" translate(-279.6, -87.64188574357709)" d="M 255.9 87.5 c 5.7 -3.9 42.9 -1.6 47.4 2.3 C 287.7 89.1 272.2 88.3 255.9 87.5" stroke-linecap="round" />
</g>
		<g transform="matrix(1 0 0 1 -94.79999999999998 -135.7)" clip-path="url(#CLIPPATH_51272)"  >
<clipPath id="CLIPPATH_51272" >
	<rect transform="matrix(1 0 0 1 191.79999999999998 268.75)" x="-234" y="-230.05" rx="0" ry="0" width="468" height="460.1" />
</clipPath>
<path style="stroke: none; stroke-width: 1; stroke-dasharray: none; stroke-linecap: butt; stroke-dashoffset: 0; stroke-linejoin: miter; stroke-miterlimit: 4; fill: rgb(118,24,206); fill-rule: nonzero; opacity: 1;"  transform=" translate(-174.70000000000002, -133.8)" d="M 224.3 91.9 c 2.1 -0.6 4.4 -0.8 6.5 -1.2 c -22.5 6.7 -42.4 17.7 -60.6 32.4 c -17.5 14.2 -32.2 31 -46.1 48.6 c -1.2 1.5 -2.5 2.9 -3.8 4.4 c -0.2 0.2 -0.5 0.3 -1.7 0.8 c 1.3 -2.1 2.1 -3.5 3 -4.8 c 13.9 -20.1 30.4 -37.7 49.8 -52.4 C 187.4 107.4 204.6 97.3 224.3 91.9" stroke-linecap="round" />
</g>
		<g transform="matrix(1 0 0 1 -104.35 -193.40000000000003)" clip-path="url(#CLIPPATH_51273)"  >
<clipPath id="CLIPPATH_51273" >
	<rect transform="matrix(1 0 0 1 210.89999999999995 384.15000000000003)" x="-234" y="-230.05" rx="0" ry="0" width="468" height="460.1" />
</clipPath>
<path style="stroke: none; stroke-width: 1; stroke-dasharray: none; stroke-linecap: butt; stroke-dashoffset: 0; stroke-linejoin: miter; stroke-miterlimit: 4; fill: rgb(118,24,206); fill-rule: nonzero; opacity: 1;"  transform=" translate(-165.15, -76.1)" d="M 240.8 33.9 c -4.4 2.2 -37.7 8.4 -42.1 10.5 c -8 3.9 -16 7.8 -24 11.8 c -7.3 3.6 -14.5 7.2 -21.8 10.9 c -17 8.6 -32 20.1 -45.8 33.2 c -5.3 5.1 -10.1 10.7 -15.2 16 c -0.7 0.7 -1.5 1.3 -2.4 2 c 2.9 -3.5 5.5 -7.1 8.6 -10.4 C 110.3 94.7 123.6 83 138 72.5 c 19.2 -14.1 40.1 -24.9 62.9 -32.1 c 3.5 -1.1 16.1 -4.1 19.9 -4.5" stroke-linecap="round" />
</g>
		<g transform="matrix(1 0 0 1 -180 -151.15)" clip-path="url(#CLIPPATH_51274)"  >
<clipPath id="CLIPPATH_51274" >
	<rect transform="matrix(1 0 0 1 362.2 299.65)" x="-234" y="-230.05" rx="0" ry="0" width="468" height="460.1" />
</clipPath>
<path style="stroke: none; stroke-width: 1; stroke-dasharray: none; stroke-linecap: butt; stroke-dashoffset: 0; stroke-linejoin: miter; stroke-miterlimit: 4; fill: rgb(118,24,206); fill-rule: nonzero; opacity: 1;"  transform=" translate(-89.5, -118.35)" d="M 89.3 118.5 c 0.1 -0.1 0.2 -0.2 0.4 -0.3 C 89.6 118.3 89.4 118.5 89.3 118.5 L 89.3 118.5 z" stroke-linecap="round" />
</g>
		<g transform="matrix(1 0 0 1 -180.45 -150.65)" clip-path="url(#CLIPPATH_51275)"  >
<clipPath id="CLIPPATH_51275" >
	<rect transform="matrix(1 0 0 1 363.09999999999997 298.65)" x="-234" y="-230.05" rx="0" ry="0" width="468" height="460.1" />
</clipPath>
<path style="stroke: none; stroke-width: 1; stroke-dasharray: none; stroke-linecap: butt; stroke-dashoffset: 0; stroke-linejoin: miter; stroke-miterlimit: 4; fill: rgb(118,24,206); fill-rule: nonzero; opacity: 1;"  transform=" translate(-89.05, -118.85)" d="M 89.3 118.5 L 89.3 118.5 c -0.1 0.3 -0.3 0.5 -0.5 0.7 C 89 119 89.1 118.7 89.3 118.5" stroke-linecap="round" />
</g>
		<g transform="matrix(1 0 0 1 154.3025377755214 136.89999999999998)"  >
<path style="stroke: none; stroke-width: 1; stroke-dasharray: none; stroke-linecap: butt; stroke-dashoffset: 0; stroke-linejoin: miter; stroke-miterlimit: 4; fill: rgb(118,24,206); fill-rule: nonzero; opacity: 1;"  transform=" translate(-423.8025377755214, -406.4)" d="M 436.9 397.7 c -0.3 -0.2 12.8 -16.1 12.5 -16.3 c -11.1 9.2 -31.1 31.3 -39.9 38.7 c -3.4 3.1 -9.3 7.2 -11.3 11.3 c 9.3 -6.6 20.4 -15.6 28.3 -22.9 C 427.6 407.3 436.1 399.1 436.9 397.7" stroke-linecap="round" />
</g>
		<g transform="matrix(1 0 0 1 150.70000000000002 102.35000000000005)"  >
<path style="stroke: none; stroke-width: 1; stroke-dasharray: none; stroke-linecap: butt; stroke-dashoffset: 0; stroke-linejoin: miter; stroke-miterlimit: 4; fill: rgb(118,24,206); fill-rule: nonzero; opacity: 1;"  transform=" translate(-420.20000000000005, -371.85)" d="M 451.3 324.7 c -14 35.1 -37.5 71.7 -62.2 94.3 C 421.9 396.6 442.8 362.2 451.3 324.7" stroke-linecap="round" />
</g>
		<g transform="matrix(1 0 0 1 149.29999999999998 119.4)"  >
<path style="stroke: none; stroke-width: 1; stroke-dasharray: none; stroke-linecap: butt; stroke-dashoffset: 0; stroke-linejoin: miter; stroke-miterlimit: 4; fill: rgb(118,24,206); fill-rule: nonzero; opacity: 1;"  transform=" translate(-418.79999999999995, -388.9)" d="M 455.2 345 c -12.5 28.1 -49 67.5 -72.8 87.8 C 414.3 411.5 448.2 374.1 455.2 345" stroke-linecap="round" />
</g>
		<g transform="matrix(1 0 0 1 -69.69999999999999 163.12842505305386)"  >
<path style="stroke: none; stroke-width: 1; stroke-dasharray: none; stroke-linecap: butt; stroke-dashoffset: 0; stroke-linejoin: miter; stroke-miterlimit: 4; fill: rgb(118,24,206); fill-rule: nonzero; opacity: 1;"  transform=" translate(-199.8, -432.6284250530539)" d="M 177.3 420.8 c 6.6 -3.8 40.9 13.2 45 24.2 c -13.4 -6.8 -13.6 -11.1 -25.1 -16.2" stroke-linecap="round" />
</g>
</g>
</g>
<g transform="matrix(0 1.6283559867534396 -1.6283559867534396 0 250.53873071894526 224.94938283503424)"  >
<path style="stroke: none; stroke-width: 0; stroke-dasharray: none; stroke-linecap: butt; stroke-dashoffset: 0; stroke-linejoin: miter; stroke-miterlimit: 4; fill: rgb(255,255,255); fill-rule: nonzero; opacity: 1;"  transform=" translate(-49.95, -50)" d="M 91.7 49 H 8.3 c -0.6 0 -1 0.4 -1 1 s 0.4 1 1 1 h 83.3 c 0.6 0 1 -0.4 1 -1 S 92.2 49 91.7 49 z" stroke-linecap="round" />
</g>
</svg>